<?xml version="1.0" encoding="UTF-8" standalone="no"?>
<!DOCTYPE svg PUBLIC "-//W3C//DTD SVG 1.1//EN" "http://www.w3.org/Graphics/SVG/1.1/DTD/svg11.dtd">
<svg width="100%" height="100%" viewBox="0 0 1250 845" version="1.1" xmlns="http://www.w3.org/2000/svg" xmlns:xlink="http://www.w3.org/1999/xlink" xml:space="preserve" xmlns:serif="http://www.serif.com/" style="fill-rule:evenodd;clip-rule:evenodd;stroke-linecap:square;stroke-linejoin:round;stroke-miterlimit:1.5;">
    <g transform="matrix(1,0,0,1,-28.558,-39.2968)">
        <g transform="matrix(8.72031,0,0,8.72031,-2722.97,-2727.58)">
            <g transform="matrix(50,0,0,50,424.876,385.432)">
            </g>
            <text x="345.676px" y="385.432px" style="font-family:'CochinLTStd', 'Cochin LT Std', serif;font-size:50px;">P<tspan x="372.776px 387.826px " y="385.432px 385.432px ">IK</tspan></text>
        </g>
        <g transform="matrix(8.72031,0,0,8.72031,-2061.57,-2727.58)">
            <path d="M357.173,368.029L360.375,368.029C365.727,368.029 367.829,369.03 368.979,374.682L369.573,374.682C369.573,372.281 369.479,369.88 369.479,367.482C369.479,365.135 369.573,362.734 369.573,360.332L368.979,360.332C368.379,365.185 365.577,366.736 361.025,366.736C359.724,366.736 358.474,366.835 357.173,366.835L357.173,354.329C359.524,354.129 361.825,354.029 364.177,354.029C369.227,354.029 373.423,355.33 375.123,361.783L375.773,361.583C375.673,359.782 375.473,358.331 375.473,356.881C375.473,355.58 375.473,354.279 375.573,352.736C370.823,352.835 366.128,352.929 361.475,352.929C355.375,352.929 352.029,352.835 347.529,352.736L347.529,353.329C352.379,353.729 352.679,355.23 352.679,360.833L352.679,377.529C352.679,383.129 352.379,384.629 347.629,385.029L347.629,385.629C349.579,385.529 351.479,385.429 353.428,385.429L372.223,385.429C372.823,385.429 373.373,385.429 373.973,385.479C374.573,385.529 377.4,385.478 377.95,385.528L382.48,375.6L381.97,375.231C375.915,383.539 370.773,384.136 362.726,384.136C360.875,384.136 358.273,383.735 357.173,383.485L357.173,368.029Z" style="fill-rule:nonzero;"/>
        </g>
        <g transform="matrix(8.72031,0,0,8.72031,-2946.6,-2727.58)">
            <path d="M370.925,362.231C370.576,359.38 370.526,356.48 370.526,353.579C368.379,353.579 366.578,353.131 364.677,352.732C362.827,352.334 360.926,351.936 358.475,351.936C353.523,351.936 349.114,355.28 349.179,360.531C349.303,370.562 369.309,368.406 368.629,378.884C368.348,383.226 363.69,384.134 357.556,384.076C351.685,384.021 344.884,379.836 342.437,375.236L341.723,375.586C342.573,379.281 345.068,382.077 346.173,385.687C346.872,385.442 351.286,385.365 352.034,385.365C353.583,385.365 357.993,385.48 361.295,385.48C367.397,385.48 372.292,382.733 372.523,377.034C373.049,364.028 353.073,366.932 353.073,358.33C353.073,354.73 355.774,353.529 359.575,353.529C364.677,353.529 368.479,357.93 370.227,362.231L370.925,362.231Z" style="fill-rule:nonzero;"/>
        </g>
        <g transform="matrix(1,0,0,1,-227.37,15.1542)">
            <path d="M1088.92,246.477L1102.48,207.67L1047.2,207.925L1030.61,233.778L943.201,206.984L943.169,177.371L904.041,158.495L902.896,35.639C902.896,35.639 901.728,29.467 895.22,29.437C889.713,29.411 887.853,35.243 887.853,35.243L886.964,157.969L849.169,177.371L848.601,206.957L759.798,234.921L743.44,207.925L688.138,208.077L701.889,246.105L354.433,261.762L1426.07,262.707L1088.92,246.477Z"/>
        </g>
        <g transform="matrix(3.70578,0,0,3.70578,-1157.52,-2356.19)">
            <g transform="matrix(50,0,0,50,649.392,852.951)">
            </g>
            <text x="330.042px" y="852.951px" style="font-family:'CochinLTStd', 'Cochin LT Std', serif;font-size:50px;">I<tspan x="373.542px 427.242px 483.692px 542.942px 607.742px " y="852.951px 852.951px 852.951px 852.951px 852.951px ">SLAND</tspan></text>
        </g>
        <g transform="matrix(0.996572,-8.81515e-06,-8.81515e-06,1,-295.128,3.01614)">
            <path d="M370.295,873L1537.04,876" style="fill:none;stroke:black;stroke-width:8.35px;"/>
        </g>
    </g>
</svg>
